<svg width="32" height="32" fill="none" xmlns="http://www.w3.org/2000/svg"><circle cx="16" cy="16" r="16" fill="#E1306C"/><path d="M22.5 11.5a3.5 3.5 0 0 0-3.5-3.5h-6a3.5 3.5 0 0 0-3.5 3.5v6a3.5 3.5 0 0 0 3.5 3.5h6a3.5 3.5 0 0 0 3.5-3.5v-6zm-1.2 0v6a2.3 2.3 0 0 1-2.3 2.3h-6a2.3 2.3 0 0 1-2.3-2.3v-6a2.3 2.3 0 0 1 2.3-2.3h6a2.3 2.3 0 0 1 2.3 2.3zm-4.3 1.2a3.3 3.3 0 1 0 0 6.6 3.3 3.3 0 0 0 0-6.6zm0 5.4a2.1 2.1 0 1 1 0-4.2 2.1 2.1 0 0 1 0 4.2zm4.1-5.7a.8.8 0 1 1-1.6 0 .8.8 0 0 1 1.6 0z" fill="#fff"/></svg>