<svg width="32" height="32" fill="none" xmlns="http://www.w3.org/2000/svg"><circle cx="16" cy="16" r="16" fill="#1DA1F2"/><path d="M24 12.1c-.5.2-1 .4-1.6.5.6-.4 1-1 1.2-1.7-.5.3-1.1.6-1.7.7-.5-.5-1.2-.9-2-1-.8-.1-1.6.2-2.2.7-.6.5-.9 1.3-.8 2.1-2.1-.1-4-1.1-5.3-2.7-.2.4-.3.8-.3 1.2 0 .7.4 1.4 1 1.8-.4 0-.8-.1-1.1-.3v.1c0 1 .7 1.8 1.6 2-.3.1-.6.1-.9.1-.2 0-.4 0-.6-.1.4 1.1 1.4 1.8 2.5 1.8-.9.7-2 1.1-3.1 1.1-.2 0-.4 0-.6-.1 1.1.7 2.3 1.1 3.6 1.1 4.3 0 6.7-3.6 6.7-6.7v-.3c.5-.3 1-.8 1.3-1.3z" fill="#fff"/></svg>